<?xml version="1.0" encoding="UTF-8"?>
<svg width="120px" height="168px" viewBox="0 0 120 168" version="1.1" xmlns="http://www.w3.org/2000/svg" xmlns:xlink="http://www.w3.org/1999/xlink">
    <!-- Generator: Sketch 53.2 (72643) - https://sketchapp.com -->
    <title>Spark logo</title>
    <desc>Created with Sketch.</desc>
    <defs>
        <path d="M35.5282332,127.989624 C35.5024406,127.984586 35.4766591,127.979257 35.4508665,127.97422 C30.6165009,127.012611 24.3691716,127.343921 21.6249641,127.544238 C20.7560245,127.60766 19.6523594,127.206117 19.3683374,126.979728 C7.55994952,117.56963 0.0732291296,103.192983 0.0732291296,86.9793481 C0.0732291296,74.8059477 4.3363353,63.6216993 11.460462,54.8187439 L11.4239102,54.8111149 C11.6163959,54.5950356 11.8081186,54.3792928 11.9990897,54.1644475 C12.6485169,53.3884244 13.3205169,52.6315857 14.0141136,51.8951657 C24.4743952,40.1013403 32.5413571,30.7905199 38.2145503,23.9630412 C44.3474675,16.5824622 47.4137858,8.61882801 47.4137858,0.0719142542 C54.3650782,6.24072123 58.8579802,11.3625644 60.8928057,15.4368827 C63.9229538,21.5046059 66.2506197,28.5561294 65.7378407,36.5675569 C65.5709682,39.1749815 65.2004584,43.8885625 67.8375799,45.9083322 C69.3284936,47.0504338 71.0888447,46.6260162 71.251869,46.5754183 C78.5084548,44.3215065 74.3383367,30.9318802 75.8212513,32.0579385 C104.156096,53.5691636 103.497783,82.3609833 103.497783,86.9793481 C103.497783,107.931359 90.8949278,125.94137 72.5978436,134.003731 C69.8501693,134.804716 68.1591746,135.133065 67.4925598,134.98163 C67.420825,134.976301 67.3461396,134.970961 67.2681783,134.965632 C68.0987038,128.319151 70.8585395,121.381377 75.2100587,116.767747 C80.7913678,110.883736 84.2021004,104.424243 84.2021004,95.6089015 C84.2021004,77.7043951 70.0834363,63.1528991 52.5747835,62.9419132 C34.8799952,62.7098804 20.2444011,77.3668693 20.1410398,95.4402901 C20.0996974,104.297714 23.5105199,110.820617 29.0917952,116.725372 C31.9334293,119.739096 34.1220907,123.734275 35.5282332,127.989624 Z" id="path-1"></path>
        <path d="M30.7729284,61.4136624 C27.6499986,61.3232816 22.7551621,60.4911742 21.0591301,59.8336019 C20.3868833,59.5728258 16.0709286,57.7722993 14.5966191,57.2048275 C13.7483001,56.8785656 12.9180775,56.5748204 12.0949567,56.2918193 C12.0487116,55.8473196 12.0042504,55.4223748 11.9621676,55.0166931 C11.8610951,54.0456039 11.6402701,51.1053767 11.604111,50.6102006 C11.2582045,45.8821918 9.2808879,41.4318437 6.07733787,37.9887441 C2.30054934,33.939635 -0.00756165482,28.415072 0.020598217,22.341111 C0.0905491335,9.94723349 9.99403946,-0.103832515 21.9679087,0.055298808 C33.8158213,0.199912652 43.3695458,10.1786717 43.3695458,22.4566788 C43.3695458,28.5018965 41.0614461,33.9828958 37.2849493,38.017779 C34.1454264,41.3909502 32.2303532,45.7612838 31.8162684,50.3891399 C31.7599487,51.019147 31.4822205,54.6646499 31.3574308,55.8511678 C31.1941147,57.4057385 30.9993741,59.2599034 30.7729284,61.4136624 Z M21.3146333,7.72798878 C13.3342266,7.72798878 6.8648831,14.2562211 6.8648831,22.3096977 C6.8648831,23.5809756 7.88630111,24.6119187 9.14631514,24.6119187 C10.4066321,24.6119187 11.4280389,23.5809756 11.4280389,22.3096977 C11.4280389,16.7993605 15.8545575,12.3327224 21.3146333,12.3327224 C22.5746585,12.3327224 23.5963682,11.3017794 23.5963682,10.0302098 C23.5963682,8.75864008 22.5746585,7.72798878 21.3146333,7.72798878 Z" id="path-3"></path>
        <path d="M119.931884,7.2066191 L119.931884,7.21311661 C118.779407,8.60684439 117.363243,9.8226478 116.076113,11.0973343 C114.4802,12.6430196 112.883278,14.122905 111.284122,15.6072443 C108.270859,18.3699746 105.937561,20.2519852 102.924309,23.0145022 C102.201083,21.4657766 102.680664,18.2846198 92.0032599,17.3132389 C93.9473793,15.6072443 95.4056905,14.9935386 97.6660756,13.8582807 C100.243029,12.575447 102.26658,10.6264586 104.487844,8.7328811 C106.648345,6.90361134 109.008019,5.19050386 111.954888,4.84497887 C114.64134,4.50969245 118.018088,5.089784 119.931884,7.20661914 L119.931884,7.2066191 Z M57.4660845,49.3125894 L55.1563878,49.3125894 C53.3097479,49.2134088 51.4868113,48.8664605 49.7272933,48.2074106 C49.4101413,48.0885816 48.2345956,47.71523 47.8222947,47.586472 C40.9371051,45.4372792 9.21825856,29.5693238 0.601524592,23.0893335 C-0.389891263,22.3437476 -0.0735677547,20.0955239 0.951282652,19.3532029 C1.61351128,18.8734417 2.8637176,18.1897963 3.35815109,17.9930362 C29.5359696,7.57689032 45.6197103,12.821414 55.1950764,17.014834 C55.35929,17.0865464 57.1827707,17.7731536 57.3751441,17.815528 C62.0518144,18.8458876 76.4037568,19.5624161 80.3302302,19.3532029 C84.5030295,19.0696184 88.6820443,18.9078168 92.7211571,19.7728747 C95.7853888,20.4967853 100.702158,21.0509065 100.52106,24.8969617 C100.339659,28.7430279 97.6770478,29.7449584 95.0891331,30.7704602 C91.6834379,32.1590448 87.8894505,32.3002817 84.2765725,32.1734164 C80.6619108,32.0515998 77.1584076,31.5383496 73.5401895,31.3510023 C73.0235513,31.3131042 72.506913,31.2793237 71.7333019,31.2548773 C68.1189318,31.133027 64.4521126,31.2017774 60.8762801,31.8336693 C56.1486191,32.5929984 53.2586645,33.4649897 49.0615647,35.7830072 C48.4361575,36.1314715 49.0627539,37.8144333 49.6905395,37.4617393 C53.4486595,35.4206198 56.009009,35.3412673 60.2164752,34.4826605 C61.1729797,34.304928 62.0701913,34.1916377 63.0299605,34.0791778 L64.1177618,33.9557231 C65.1436226,33.8397404 66.1703697,33.7850025 67.4561764,33.7164652 L69.390221,33.740115 C70.1632375,33.7601747 70.8692762,33.7225122 71.6449741,33.7466333 C71.7125465,33.8043218 71.8411956,33.7974781 71.9692389,33.7906345 L74.8117592,33.958326 C79.2738424,34.2931592 82.4427143,34.7085565 86.8730811,34.4723502 C85.3205072,35.5696764 85.1681635,35.7422595 83.8183296,37.0209756 C82.3826246,38.376343 69.7665411,48.6809669 57.4660824,49.3125895 L57.4660845,49.3125894 Z M113.753429,3.15972833 L113.697109,3.35767765 C112.920525,3.27233417 112.14191,3.18699069 111.371855,3.22818712 C108.150815,3.20714014 106.120443,4.54005569 103.709779,6.50949655 C101.299114,8.47892617 99.0941625,10.691058 96.2688299,12.1099116 C93.6328976,13.4570418 92.2566875,14.2669242 89.9399828,16.4266068 C89.1026361,16.4100139 88.2264714,16.3723851 87.3917949,16.416835 C87.1318377,16.3694121 84.14467,16.4032038 83.8876859,16.416835 C87.1318377,14.6483053 95.8064357,7.61303816 98.1495165,5.58166804 C100.425317,3.49250847 102.045766,1.73584854 104.944898,0.505464088 C107.465531,-0.582382049 112.136278,0.397603927 113.753429,3.15972833 Z" id="path-5"></path>
    </defs>
    <g id="Page-1" stroke="none" stroke-width="1" fill="none" fill-rule="evenodd">
        <g id="Spark-logo">
            <g id="Group-3" transform="translate(5.833918, 0.000000)">
                <g id="Fill-1-Clipped">
                    <mask id="mask-2" fill="white">
                        <use xlink:href="#path-1"></use>
                    </mask>
                    <g id="path-1"></g>
                    <polygon id="Fill-1" fill="#FF492A" fill-rule="nonzero" mask="url(#mask-2)" points="-0.75522981 -1.11214665 104.653561 -1.11214665 104.653561 135.866187 -0.75522981 135.866187"></polygon>
                </g>
            </g>
            <g id="Group-6" transform="translate(36.349795, 72.026445)">
                <g id="Fill-4-Clipped">
                    <mask id="mask-4" fill="white">
                        <use xlink:href="#path-3"></use>
                    </mask>
                    <g id="path-3"></g>
                    <polygon id="Fill-4" fill="#FFCE03" fill-rule="nonzero" mask="url(#mask-4)" points="-0.935760393 -1.52444756 44.4290525 -1.52444756 44.4290525 62.7865627 -0.935760393 62.7865627"></polygon>
                </g>
            </g>
            <g id="Group-9" transform="translate(0.000000, 117.800260)">
                <g id="Fill-7-Clipped">
                    <mask id="mask-6" fill="white">
                        <use xlink:href="#path-5"></use>
                    </mask>
                    <g id="path-5"></g>
                    <polygon id="Fill-7" fill="#F7B47B" fill-rule="nonzero" mask="url(#mask-6)" points="-0.614721475 -1.7997075 120.595156 -1.7997075 120.595156 49.873543 -0.614721475 49.873543"></polygon>
                </g>
            </g>
        </g>
    </g>
</svg>